<svg width="165" height="26" viewBox="0 0 165 26" fill="none" xmlns="http://www.w3.org/2000/svg">
<mask id="mask0_401_127" style="mask-type:alpha" maskUnits="userSpaceOnUse" x="34" y="0" width="19" height="25">
<path d="M34.7754 24.3102V0.189453H41.4792C43.3028 0.189453 44.4329 0.263976 45.486 0.437864C46.5391 0.611752 47.4637 0.909849 48.26 1.35699C49.4415 2.00286 50.3918 2.92198 51.0853 4.08951C51.7788 5.25704 52.1384 6.54878 52.1384 7.93988C52.1384 10.0017 51.4192 11.7157 50.0066 13.082C49.3901 13.6533 48.748 14.0756 48.1059 14.3489C47.6179 14.5725 47.1298 14.7463 46.6161 14.8457C46.1281 14.9451 45.7429 14.9948 44.8182 15.0196L52.1127 24.2853H48.9792L40.5031 13.3552H41.248C42.5579 13.3552 43.5853 13.3304 44.3559 13.2559C45.075 13.231 45.5631 13.0323 46.385 12.7094C47.361 12.2622 48.1316 11.6164 48.7223 10.7469C49.3131 9.87749 49.5956 8.93353 49.5956 7.8902C49.5956 7.02076 49.3901 6.201 48.9792 5.40609C48.5682 4.61117 48.0031 3.99014 47.2583 3.49332C46.6418 3.04618 45.9483 2.74809 45.1521 2.59904C44.3559 2.45 43.4826 2.35063 41.9672 2.35063H37.2411V24.2605H34.7754V24.3102Z" fill="#333333"/>
</mask>
<g mask="url(#mask0_401_127)">
<path d="M34.7754 24.3102V0.189453H41.4792C43.3028 0.189453 44.4329 0.263976 45.486 0.437864C46.5391 0.611752 47.4637 0.909849 48.26 1.35699C49.4415 2.00286 50.3918 2.92198 51.0853 4.08951C51.7788 5.25704 52.1384 6.54878 52.1384 7.93988C52.1384 10.0017 51.4192 11.7157 50.0066 13.082C49.3901 13.6533 48.748 14.0756 48.1059 14.3489C47.6179 14.5725 47.1298 14.7463 46.6161 14.8457C46.1281 14.9451 45.7429 14.9948 44.8182 15.0196L52.1127 24.2853H48.9792L40.5031 13.3552H41.248C42.5579 13.3552 43.5853 13.3304 44.3559 13.2559C45.075 13.231 45.5631 13.0323 46.385 12.7094C47.361 12.2622 48.1316 11.6164 48.7223 10.7469C49.3131 9.87749 49.5956 8.93353 49.5956 7.8902C49.5956 7.02076 49.3901 6.201 48.9792 5.40609C48.5682 4.61117 48.0031 3.99014 47.2583 3.49332C46.6418 3.04618 45.9483 2.74809 45.1521 2.59904C44.3559 2.45 43.4826 2.35063 41.9672 2.35063H37.2411V24.2605H34.7754V24.3102Z" fill="#333333"/>
<path fill-rule="evenodd" clip-rule="evenodd" d="M37.8834 13.5913C41.6719 13.1752 45.4604 12.7591 49.1333 12.1629C50.5375 11.933 52.3585 11.9068 54.3657 12.006V9.70609C53.5822 9.45696 52.9743 9.14752 52.4699 8.72308C51.1604 7.62134 50.5481 5.74473 49.3707 2.13658C49.1621 1.49739 48.9358 0.803855 48.6847 0.0506592H46.8502C48.865 5.28518 49.802 7.86353 48.8626 9.26693C47.9542 10.6238 45.2917 10.8823 40.1532 11.3812C37.8207 11.6077 34.978 11.8837 31.5576 12.3345L31.9465 14.271C33.9144 14.0272 35.8989 13.8093 37.8834 13.5913Z" fill="url(#paint0_linear_401_127)"/>
</g>
<mask id="mask1_401_127" style="mask-type:alpha" maskUnits="userSpaceOnUse" x="96" y="0" width="20" height="25">
<path d="M96.4964 24.2865V0.165771H99.7841L113.192 19.8896L113.371 20.3864V0.165771H115.811V24.2865H113.397L99.0392 3.22123L98.9108 2.84861V24.2865H96.4964Z" fill="#333333"/>
</mask>
<g mask="url(#mask1_401_127)">
<path d="M96.4964 24.2865V0.165771H99.7841L113.192 19.8896L113.371 20.3864V0.165771H115.811V24.2865H113.397L99.0392 3.22123L98.9108 2.84861V24.2865H96.4964Z" fill="#333333"/>
<path fill-rule="evenodd" clip-rule="evenodd" d="M96.9276 12.2646C95.4821 13.5927 95.1179 13.9273 91.4621 13.9029V11.5642C95.5096 10.3039 98.7734 7.44612 103.303 1.35815L106.154 3.09703L97.01 12.1889L96.9276 12.2646Z" fill="url(#paint1_linear_401_127)"/>
</g>
<mask id="mask2_401_127" style="mask-type:alpha" maskUnits="userSpaceOnUse" x="61" y="0" width="26" height="26">
<path d="M74.0015 0.886353C76.3131 0.886353 78.445 1.43286 80.397 2.50103C82.3491 3.56919 83.8902 5.03483 85.0203 6.87307C86.1504 8.71131 86.7155 10.7483 86.7155 12.9343C86.7155 15.1203 86.1504 17.1324 85.0203 18.9955C83.9159 20.8338 82.4004 22.2994 80.4741 23.3924C78.5477 24.4606 76.4929 25.0071 74.2326 25.0071C72.0237 25.0071 69.9433 24.4606 68.0169 23.3924C66.0905 22.3242 64.5751 20.8586 63.445 19.0204C62.3148 17.1821 61.7755 15.17 61.7755 13.0337C61.7755 10.8973 62.3405 8.91004 63.445 7.02211C64.5494 5.13419 66.0391 3.66856 67.9141 2.55071C69.8405 1.4577 71.8439 0.886353 74.0015 0.886353ZM74.207 3.1469C72.4347 3.1469 70.7652 3.59403 69.2241 4.48831C67.683 5.38259 66.4501 6.59982 65.5511 8.11513C64.6265 9.63044 64.1898 11.2699 64.1898 13.0337C64.1898 14.7725 64.6522 16.3872 65.5511 17.8777C66.4758 19.393 67.7087 20.5854 69.2754 21.4548C70.8422 22.3242 72.5118 22.7714 74.3354 22.7714C75.6967 22.7714 77.0066 22.523 78.2138 22.0262C79.4467 21.5293 80.4998 20.8089 81.4501 19.9147C82.3748 18.9955 83.0939 17.9522 83.6076 16.7598C84.1213 15.5675 84.3782 14.3006 84.3782 12.9591C84.3782 11.2203 83.9159 9.60558 82.9912 8.09028C82.0665 6.57497 80.8337 5.3826 79.2669 4.51316C77.6744 3.59404 76.0049 3.1469 74.207 3.1469Z" fill="#333333"/>
</mask>
<g mask="url(#mask2_401_127)">
<path d="M74.0015 0.886353C76.3131 0.886353 78.445 1.43286 80.397 2.50103C82.3491 3.56919 83.8902 5.03483 85.0203 6.87307C86.1504 8.71131 86.7155 10.7483 86.7155 12.9343C86.7155 15.1203 86.1504 17.1324 85.0203 18.9955C83.9159 20.8338 82.4004 22.2994 80.4741 23.3924C78.5477 24.4606 76.4929 25.0071 74.2326 25.0071C72.0237 25.0071 69.9433 24.4606 68.0169 23.3924C66.0905 22.3242 64.5751 20.8586 63.445 19.0204C62.3148 17.1821 61.7755 15.17 61.7755 13.0337C61.7755 10.8973 62.3405 8.91004 63.445 7.02211C64.5494 5.13419 66.0391 3.66856 67.9141 2.55071C69.8405 1.4577 71.8439 0.886353 74.0015 0.886353ZM74.207 3.1469C72.4347 3.1469 70.7652 3.59403 69.2241 4.48831C67.683 5.38259 66.4501 6.59982 65.5511 8.11513C64.6265 9.63044 64.1898 11.2699 64.1898 13.0337C64.1898 14.7725 64.6522 16.3872 65.5511 17.8777C66.4758 19.393 67.7087 20.5854 69.2754 21.4548C70.8422 22.3242 72.5118 22.7714 74.3354 22.7714C75.6967 22.7714 77.0066 22.523 78.2138 22.0262C79.4467 21.5293 80.4998 20.8089 81.4501 19.9147C82.3748 18.9955 83.0939 17.9522 83.6076 16.7598C84.1213 15.5675 84.3782 14.3006 84.3782 12.9591C84.3782 11.2203 83.9159 9.60558 82.9912 8.09028C82.0665 6.57497 80.8337 5.3826 79.2669 4.51316C77.6744 3.59404 76.0049 3.1469 74.207 3.1469Z" fill="#333333"/>
<path fill-rule="evenodd" clip-rule="evenodd" d="M58.3585 13.0261V11.1764C59.0817 11.2751 59.8817 11.3766 60.7697 11.4892C63.0702 11.781 65.9611 12.1477 69.6351 12.7355C72.3216 12.7995 74.714 12.8978 76.8678 12.9863C81.9324 13.1944 85.6772 13.3483 88.8219 12.8747L88.883 14.6149L69.0957 14.5489C68.893 14.5165 68.6837 14.483 68.4682 14.4485L68.4556 14.4465L68.4513 14.4458C65.7091 14.0067 61.9785 13.4094 58.3585 13.0261Z" fill="url(#paint2_linear_401_127)"/>
</g>
<path d="M0 12.1644C0 12.0931 0.0294705 12.0075 0.0736764 11.9647C0.81044 11.2799 1.60615 10.6807 2.47553 10.1814C2.49026 10.1671 2.51973 10.1671 2.51973 10.1671C2.46079 10.7948 2.35764 11.4225 2.37238 12.036C2.38711 15.5598 3.94905 18.2989 6.92558 20.2962C8.63487 21.4375 10.5505 21.9653 12.6281 21.9653C16.6951 21.9653 20.7473 21.9653 24.8142 21.9653C24.8879 21.9653 24.9616 21.9653 25.05 21.9653C25.05 22.7072 25.05 23.4347 25.05 24.1909C24.9763 24.1909 24.9173 24.1909 24.8584 24.1909C20.762 24.1909 16.6803 24.1766 12.5839 24.2051C7.45605 24.2479 2.57867 21.1093 0.722028 16.2303C0.235764 14.9035 0 13.5625 0 12.1644Z" fill="#333333"/>
<path d="M0 12.1267C0.0294706 5.43583 5.64361 0.0146484 12.5692 0.0146484C19.5095 0.0146484 25.1384 5.46436 25.1384 12.1838C25.1384 15.5649 23.7238 18.6179 21.4251 20.8149C21.4251 20.8006 21.4251 20.7721 21.4251 20.7578C21.4251 14.0384 15.7962 8.58867 8.8559 8.58867C5.40785 8.58867 2.26923 9.94397 0 12.1267Z" fill="url(#paint3_linear_401_127)"/>
<path d="M19.9052 6.87463C21.1283 8.52951 21.5866 9.26068 22.2644 10.5304C22.4118 10.8157 22.6091 11.1606 22.7895 11.5095C23.0853 12.0818 23.425 12.5641 23.7572 12.7574C24.142 12.9814 24.6041 13.0852 25.1021 13.0852C24.9818 14.3278 24.8834 14.7772 24.6135 15.6793C23.4832 16.1473 22.5089 16.6619 21.4681 17.2377C21.3208 17.3233 20.9745 17.516 20.9745 17.516C20.8282 16.9826 20.5123 16.1504 20.2758 15.6597C20.6377 15.3021 21.1219 14.7028 21.338 14.0859C21.618 13.3583 21.4764 12.1123 20.8768 11.0343C20.4347 10.1212 19.8275 9.33261 19.2086 8.47663C18.5897 7.62065 13.4838 1.45053 12.2942 0.0154217C12.6208 -0.0168649 14.2434 0.0398888 15.1464 0.268273C15.9274 1.52371 19.879 6.83912 19.9052 6.87463Z" fill="#333333"/>
<path d="M144.136 24.2865C144.136 16.2877 144.137 8.31365 144.137 0.339654C144.354 0.339654 144.515 0.339654 144.695 0.339654C146.904 0.339654 149.087 0.314813 151.296 0.339654C153.967 0.389336 156.587 0.811635 158.924 2.12821C162.083 3.86709 164.036 6.54993 164.729 9.95317C165.602 14.1513 164.344 17.803 161.262 20.8584C159.515 22.6221 157.28 23.6655 154.738 24.0132C153.479 24.1871 152.195 24.2617 150.936 24.2865C148.816 24.2865 147.176 24.2865 144.643 24.2865C144.489 24.2865 144.341 24.2865 144.136 24.2865ZM146.551 22.1502C146.77 22.1502 146.852 22.1502 146.981 22.1502C148.573 22.1502 150.14 22.1502 151.732 22.1005C153.274 22.0508 154.815 21.8769 156.253 21.3304C160.979 19.5915 163.599 14.4743 162.289 9.63023C161.364 6.20216 157.82 2.84861 153.068 2.57535C151.065 2.45115 149.036 2.47599 147.032 2.45115C146.878 2.45115 146.73 2.45115 146.546 2.45115C146.546 9.00921 146.551 15.5921 146.551 22.1502Z" fill="#333333"/>
<path d="M138.804 24.2864C138.034 24.2864 137.263 24.2864 136.493 24.2864C136.493 16.3124 136.493 8.38806 136.493 0.414062C137.263 0.414062 138.008 0.414062 138.804 0.414062C138.804 8.36322 138.804 16.2875 138.804 24.2864Z" fill="#333333"/>
<defs>
<linearGradient id="paint0_linear_401_127" x1="42.9617" y1="0.0506592" x2="42.9617" y2="14.271" gradientUnits="userSpaceOnUse">
<stop stop-color="#01B9FF"/>
<stop offset="1" stop-color="#038AE6"/>
</linearGradient>
<linearGradient id="paint1_linear_401_127" x1="98.8079" y1="1.35815" x2="98.8079" y2="15.097" gradientUnits="userSpaceOnUse">
<stop stop-color="#03E4FF"/>
<stop offset="1" stop-color="#01C9FC"/>
</linearGradient>
<linearGradient id="paint2_linear_401_127" x1="88.8829" y1="13.6239" x2="58.3598" y2="12.8453" gradientUnits="userSpaceOnUse">
<stop stop-color="#00C2FC"/>
<stop offset="1" stop-color="#08A8FC"/>
</linearGradient>
<linearGradient id="paint3_linear_401_127" x1="10.338" y1="23.8996" x2="21.951" y2="3.08928" gradientUnits="userSpaceOnUse">
<stop stop-color="#00E7FF"/>
<stop offset="0.640254" stop-color="#01A2FA"/>
<stop offset="1" stop-color="#073C5B"/>
</linearGradient>
</defs>
</svg>
