<svg width="14" height="16" viewBox="0 0 14 16" fill="none" xmlns="http://www.w3.org/2000/svg">
<path d="M8.04996 8.85933H5.90251C3.9235 8.2298 3.03926 6.37822 3.20769 3.26757C3.20769 1.45303 4.89195 0.00878906 6.95518 0.00878906C9.01841 0.00878906 10.7027 1.45303 10.7027 3.26757C10.9132 6.37822 9.98687 8.2298 8.04996 8.85933Z" fill="#333333"/>
<path d="M9.60777 9.37769C9.27092 9.59987 8.89195 9.78503 8.47089 9.89612C8.34457 9.93316 8.17614 9.97019 8.04982 9.97019H5.90238C5.77606 9.97019 5.60763 9.93316 5.48131 9.89612C5.06024 9.748 4.68129 9.56284 4.30233 9.37769C2.15489 10.2294 0.681152 12.155 0.681152 14.3399V15.4879H13.271V14.3769C13.271 12.1551 11.7552 10.2664 9.60777 9.37769Z" fill="#333333"/>
</svg>
