<svg width="21" height="23" viewBox="0 0 21 23" fill="none" xmlns="http://www.w3.org/2000/svg">
<path d="M2.74964 20.1552C-0.150037 17.5207 -0.364983 13.0335 2.26955 10.1339L9.7103 1.94424C11.7752 -0.328481 15.2902 -0.496884 17.5629 1.56802C19.8356 3.63292 20.004 7.14788 17.9391 9.4206L11.5664 16.4347C10.1067 18.0413 7.60317 18.1987 5.95741 16.7034C4.35084 15.2437 4.19341 12.7402 5.68868 11.0944L12.0614 4.08034C12.3462 3.76686 12.8697 3.74178 13.1832 4.02659C13.4967 4.31141 13.5217 4.83491 13.2369 5.14839L6.86423 12.1625C5.97418 13.1421 6.04585 14.6378 7.02546 15.5279C8.00508 16.4179 9.50081 16.3462 10.3909 15.3666L16.7636 8.35255C18.2232 6.74597 18.1406 4.23883 16.4948 2.74356C14.8883 1.28389 12.3811 1.36653 10.8858 3.01229L3.44509 11.2019C1.38019 13.4746 1.54859 16.9896 3.82131 19.0545C6.09403 21.1194 9.60899 20.951 11.6739 18.6783L19.1147 10.4887C19.3995 10.1752 19.923 10.1501 20.2365 10.4349C20.5499 10.7197 20.575 11.2432 20.2902 11.5567L12.8494 19.7463C10.1365 22.5748 5.64931 22.7897 2.74964 20.1552Z" fill="#01A2FA"/>
</svg>
