<svg width="23" height="23" viewBox="0 0 23 23" fill="none" xmlns="http://www.w3.org/2000/svg">
<path d="M20.0353 18.7308C20.2054 18.5035 20.3755 18.2763 20.5456 18.049C20.7157 17.8218 20.8291 17.6514 20.9425 17.4241C21.0559 17.1969 21.1693 17.0264 21.2827 16.7992C21.3394 16.6288 21.4528 16.4583 21.5095 16.3447C21.6229 16.1175 21.7363 15.8902 21.793 15.663C21.8497 15.4925 21.9064 15.3789 21.9631 15.2085C22.0765 14.9244 22.1332 14.5836 22.2466 14.2995C22.3034 14.1859 22.3033 14.0723 22.3601 13.9587C22.3601 13.9018 22.36 13.845 22.4168 13.7882C22.4735 13.5042 22.5302 13.2201 22.5302 12.9361C22.5302 12.8224 22.5302 12.7088 22.5869 12.5952C22.5869 12.3111 22.6436 12.0839 22.6436 11.7998C22.6436 11.6294 22.6436 11.5158 22.6436 11.3453C22.6436 11.1181 22.6436 10.8909 22.5869 10.6636C22.5869 10.55 22.5869 10.4364 22.5302 10.3228C22.5302 10.0955 22.4735 9.81145 22.4168 9.58421C22.4168 9.47059 22.3601 9.35697 22.3601 9.30016C22.3033 9.07291 22.2466 8.84567 22.1899 8.61843C22.1899 8.56162 22.1332 8.44799 22.1332 8.33437C22.1332 8.33437 22.1332 8.33438 22.1332 8.27757C22.0765 8.10713 22.0198 7.9367 21.9631 7.76626C21.9064 7.65264 21.9064 7.53903 21.8497 7.4254C21.8497 7.36859 21.793 7.36859 21.793 7.31178C20.7157 4.8121 18.7879 2.82372 16.3497 1.6875C16.1229 1.57388 15.8961 1.46026 15.6693 1.40345C15.5559 1.34664 15.4425 1.28983 15.3291 1.28983C14.9889 1.17621 14.6487 1.06259 14.3085 1.00578H14.2518C12.5508 0.608101 10.793 0.608101 9.14871 1.00578H9.09201C8.7518 1.06259 8.4116 1.17621 8.07139 1.28983C7.95799 1.34664 7.84459 1.40345 7.73118 1.40345C7.50438 1.51707 7.27758 1.57388 7.05077 1.6875C4.61263 2.82372 2.68479 4.86891 1.60747 7.31178C1.60747 7.36859 1.60748 7.36859 1.55077 7.4254C1.43737 7.70946 1.32397 7.99351 1.21056 8.27757C1.21056 8.33438 1.21057 8.33438 1.15386 8.39119C1.15386 8.448 1.09716 8.5048 1.09716 8.61843C1.04046 8.84567 0.983761 9.07291 0.92706 9.30016C0.92706 9.41378 0.87036 9.52741 0.87036 9.69784C0.813659 9.92508 0.81366 10.1523 0.756959 10.3228C0.756959 10.4364 0.75696 10.55 0.700259 10.6636C0.643558 11.0045 0.643555 11.3454 0.643555 11.6862C0.643555 12.0271 0.643558 12.3111 0.700259 12.652C0.700259 12.7088 0.700259 12.7656 0.700259 12.8224C0.700259 12.8792 0.700259 12.936 0.700259 12.9929C0.75696 13.2769 0.756958 13.6178 0.81366 13.9018V13.9587C0.81366 14.0723 0.870359 14.1859 0.92706 14.2995C0.983761 14.6404 1.09716 14.9812 1.21056 15.3221C1.26727 15.4357 1.26727 15.5494 1.32397 15.663C1.43737 15.947 1.55077 16.2311 1.66417 16.5151C1.72088 16.6288 1.77758 16.7424 1.83428 16.856C2.00438 17.1401 2.17448 17.4809 2.34459 17.765C2.40129 17.8218 2.40129 17.8786 2.45799 17.9354C2.68479 18.2763 2.9116 18.5603 3.1384 18.8444C3.59201 19.3557 4.04562 19.8102 4.55593 20.2647C4.83943 20.4919 5.06624 20.6623 5.34974 20.8896C5.63325 21.06 5.91675 21.2304 6.20026 21.4009C6.25696 21.4009 6.25696 21.4577 6.31366 21.4577C6.54046 21.5713 6.82397 21.7417 7.10747 21.8554C7.16417 21.8554 7.22088 21.9122 7.27758 21.9122C7.56108 22.0258 7.84459 22.1394 8.12809 22.1962C8.2415 22.253 8.3549 22.253 8.4683 22.3098C8.6384 22.3667 8.80851 22.4235 8.97861 22.4235C9.14871 22.4803 9.31881 22.4803 9.43221 22.5371C9.65902 22.5939 9.94253 22.5939 10.1693 22.6507C10.226 22.6507 10.2827 22.6507 10.3961 22.6507C10.7363 22.7075 11.0198 22.7075 11.36 22.7075C11.4168 22.7075 11.4168 22.7075 11.4735 22.7075H11.5302C12.2106 22.7075 12.8343 22.6507 13.458 22.5371C13.9116 22.4235 14.4219 22.3098 14.8755 22.1962H14.9322C15.3291 22.0826 15.726 21.9122 16.0662 21.7417C16.1796 21.6849 16.2363 21.6281 16.3497 21.5713C16.6332 21.4009 16.9735 21.2304 17.257 21.06C17.3704 21.0032 17.4271 20.9464 17.5405 20.8896C17.8807 20.6623 18.2209 20.4351 18.5044 20.151C19.1281 19.6965 19.6384 19.2421 20.0353 18.7308ZM13.2312 20.8896C13.1178 20.8896 12.9477 20.9464 12.8343 20.9464L12.1539 21.0032C12.0972 21.0032 12.0405 21.0032 11.9838 21.0032C11.7003 21.0032 11.4735 21.0032 11.1899 21.0032L10.3961 20.9464C10.2827 20.9464 10.1126 20.8896 9.99922 20.8896C6.42706 20.2078 3.47861 17.4241 2.62809 13.9018C2.62809 13.845 2.62809 13.845 2.57139 13.7882C2.51469 13.6746 2.51469 13.5042 2.45799 13.3337C2.45799 13.2201 2.40129 13.1065 2.40129 12.9929C2.40129 12.9929 2.40129 12.9929 2.40129 12.9361V12.8792C2.40129 12.7656 2.34459 12.652 2.34459 12.5384C2.34459 12.5384 2.34459 12.5384 2.34459 12.4816C2.28788 12.2543 2.28789 11.9703 2.28789 11.743C2.28789 10.834 2.40129 9.86827 2.6848 8.9593C2.7982 8.61843 2.9116 8.27757 3.025 7.99351C3.025 7.99351 3.025 7.9367 3.0817 7.9367C3.1384 7.76627 3.2518 7.59583 3.30851 7.48221C4.10232 5.94832 5.29304 4.64167 6.76727 3.7895C9.65902 2.02837 13.5147 2.02837 16.4064 3.7895C17.8807 4.69848 19.0714 5.94832 19.8652 7.48221C19.9219 7.59583 19.9786 7.70946 20.0353 7.82308L20.092 7.99351C20.2054 8.27757 20.3755 8.61842 20.4889 9.0161C20.7724 9.98189 20.9425 11.0045 20.8858 12.0839C20.8858 12.2543 20.8858 12.3679 20.8291 12.5952C20.8291 12.7088 20.8291 12.8224 20.7724 12.9361C20.7724 12.9361 20.7724 12.936 20.7724 12.9929V13.0497C20.7724 13.1633 20.7157 13.2769 20.7157 13.4473C20.7157 13.561 20.659 13.7314 20.659 13.845C19.8652 17.3105 16.8601 20.2078 13.2312 20.8896Z" fill="#333333"/>
<path d="M15.8389 12.5379H11.5864C11.1327 12.5379 10.7358 12.1402 10.7358 11.6857V4.92525C10.7358 4.47077 11.1327 4.07309 11.5864 4.07309C12.04 4.07309 12.4369 4.47077 12.4369 4.92525V10.8904H15.8389C16.2925 10.8904 16.6894 11.2881 16.6894 11.7426C16.6894 12.1402 16.2925 12.5379 15.8389 12.5379Z" fill="#333333"/>
</svg>
