<svg width="23" height="21" viewBox="0 0 23 21" fill="none" xmlns="http://www.w3.org/2000/svg">
<path d="M20.9438 10.8812C20.839 10.9853 20.7342 11.0373 20.6819 11.1414L12.9294 18.8445C12.3009 19.469 11.3057 19.469 10.7295 18.8445L2.97706 11.1414C2.8723 11.0894 2.76754 10.9853 2.71515 10.8812C1.51039 9.68409 0.881836 8.07061 0.881836 6.45714C0.881836 4.84366 1.51039 3.28223 2.71515 2.03309C3.91992 0.835997 5.54373 0.211426 7.16754 0.211426C8.79135 0.211426 10.3628 0.835997 11.6199 2.03309C11.7247 2.13719 11.7771 2.24128 11.8818 2.29333C11.9342 2.18923 12.039 2.08514 12.1437 2.03309C13.3485 0.835997 14.9723 0.211426 16.5961 0.211426C18.2199 0.211426 19.7914 0.835997 21.0485 2.03309C22.2533 3.23019 22.8818 4.84366 22.8818 6.45714C22.8818 8.07061 22.2009 9.63204 20.9438 10.8812Z" fill="white"/>
</svg>
