<svg width="19" height="21" viewBox="0 0 19 21" fill="none" xmlns="http://www.w3.org/2000/svg">
<path d="M13.4052 5.10265H11.265V8.74785H7.9723V5.10265H5.83206C5.11864 5.10265 4.7345 4.32501 5.2284 3.88758L8.96011 0.582603C9.28938 0.290988 9.78328 0.290988 10.1125 0.582603L13.8443 3.88758C14.5028 4.32501 14.1186 5.10265 13.4052 5.10265Z" fill="white"/>
<path d="M18.6187 10.206V18.9059C18.6187 19.6835 17.9052 20.364 16.9723 20.364H2.26499C1.38694 20.364 0.618652 19.7321 0.618652 18.9059V10.206C0.618652 9.42836 1.33207 8.74792 2.26499 8.74792H7.97231V15.9411C7.97231 16.7188 8.63085 17.3992 9.45402 17.4478C9.94792 17.4964 10.4418 17.302 10.7711 17.0104C11.1004 16.7674 11.265 16.3785 11.265 15.9897V8.74792H17.0272C17.9052 8.74792 18.6187 9.42836 18.6187 10.206Z" fill="white"/>
</svg>
