<svg width="25" height="19" viewBox="0 0 25 19" fill="none" xmlns="http://www.w3.org/2000/svg">
<path d="M22.5451 0.981445H1.99007C1.87523 0.981445 1.76042 0.981444 1.64558 1.04165L11.9231 11.035C12.1527 11.1554 12.4399 11.1554 12.6695 11.035L22.947 1.04165C22.7748 0.981444 22.6599 0.981445 22.5451 0.981445ZM24.1528 2.18546L22.5451 3.75068V3.81088L16.6312 9.59014L24.2102 17.5366C24.2676 17.4162 24.2676 17.2356 24.2676 17.055V2.78747C24.2102 2.54666 24.2102 2.36606 24.1528 2.18546ZM15.3107 10.8544L13.9901 12.1788C13.4733 12.6604 12.8418 12.9012 12.2676 12.9012C11.636 12.9012 11.0044 12.6604 10.5451 12.1788L9.62643 11.2758L1.70299 18.9212C1.81782 18.9212 1.93267 18.9814 2.0475 18.9814H22.6025C22.7748 18.9814 22.8896 18.9814 23.0618 18.9212L21.3968 17.1754L15.3107 10.8544ZM1.93266 3.87108V3.81088L0.325015 2.24566C0.267599 2.42626 0.267578 2.60686 0.267578 2.78747V17.1754C0.267578 17.356 0.325015 17.5366 0.325015 17.7172L1.93266 16.152V16.0918L7.67429 10.6136L8.24846 10.0717L1.93266 3.87108Z" fill="#333333"/>
</svg>
