<svg width="18" height="17" viewBox="0 0 18 17" fill="none" xmlns="http://www.w3.org/2000/svg">
<path d="M16.5132 0.892212H1.43898C0.765275 0.892212 0.175781 1.4396 0.175781 2.15541V12.2189C0.175781 12.8926 0.723168 13.4821 1.43898 13.4821H5.86018V16.0085L9.01818 13.4821H16.5132C17.1869 13.4821 17.7764 12.9347 17.7764 12.2189V2.15541C17.7764 1.4396 17.229 0.892212 16.5132 0.892212ZM14.0289 10.9557H3.96538C3.62853 10.9557 3.33378 10.661 3.33378 10.3241C3.33378 9.98726 3.62853 9.69251 3.96538 9.69251H14.0289C14.3657 9.69251 14.6605 9.98726 14.6605 10.3241C14.6605 10.661 14.3657 10.9557 14.0289 10.9557ZM14.0289 7.79771H3.96538C3.62853 7.79771 3.33378 7.50296 3.33378 7.16611C3.33378 6.82925 3.62853 6.53451 3.96538 6.53451H14.0289C14.3657 6.53451 14.6605 6.82925 14.6605 7.16611C14.6605 7.50296 14.3657 7.79771 14.0289 7.79771ZM14.0289 4.63971H3.96538C3.62853 4.63971 3.33378 4.34496 3.33378 4.00811C3.33378 3.67125 3.62853 3.37651 3.96538 3.37651H14.0289C14.3657 3.37651 14.6605 3.67125 14.6605 4.00811C14.6605 4.38707 14.3657 4.63971 14.0289 4.63971Z" fill="#333333"/>
</svg>
