<svg width="35" height="35" viewBox="0 0 35 35" fill="none" xmlns="http://www.w3.org/2000/svg">
<path d="M0 8.55556C0 3.83045 3.83045 0 8.55556 0H26.4444C31.1695 0 35 3.83045 35 8.55556V26.4444C35 31.1695 31.1695 35 26.4444 35H8.55556C3.83045 35 0 31.1695 0 26.4444V8.55556Z" fill="#F3F3F3"/>
<path fill-rule="evenodd" clip-rule="evenodd" d="M16.0314 27.0028C16.0314 24.89 17.7427 23.1787 19.8554 23.1787H21.6105C23.7242 23.1787 25.432 24.8899 25.4469 26.9981C25.4495 27.368 25.1517 27.67 24.7818 27.6726C24.4119 27.6752 24.1099 27.3774 24.1073 27.0075C24.0976 25.63 22.9825 24.5183 21.6105 24.5183H19.8554C18.4825 24.5183 17.371 25.6299 17.371 27.0028C17.371 27.3727 17.0711 27.6726 16.7012 27.6726C16.3313 27.6726 16.0314 27.3727 16.0314 27.0028Z" fill="black"/>
<path fill-rule="evenodd" clip-rule="evenodd" d="M20.7391 18.2913C19.8279 18.2913 19.0892 19.0299 19.0892 19.9411C19.0892 20.8523 19.8279 21.591 20.7391 21.591C21.6503 21.591 22.389 20.8523 22.389 19.9411C22.389 19.0299 21.6503 18.2913 20.7391 18.2913ZM17.7496 19.9411C17.7496 18.2901 19.0881 16.9517 20.7391 16.9517C22.3902 16.9517 23.7286 18.2901 23.7286 19.9411C23.7286 21.5922 22.3902 22.9306 20.7391 22.9306C19.0881 22.9306 17.7496 21.5922 17.7496 19.9411Z" fill="black"/>
<path fill-rule="evenodd" clip-rule="evenodd" d="M11.4641 8.33961C11.1357 8.33961 10.673 8.70192 10.673 9.43043V25.9459C10.673 26.6744 11.1357 27.0367 11.4641 27.0367H13.5961C13.966 27.0367 14.2659 27.3366 14.2659 27.7065C14.2659 28.0764 13.966 28.3763 13.5961 28.3763H11.4641C10.1727 28.3763 9.33337 27.1694 9.33337 25.9459V9.43043C9.33337 8.20694 10.1727 7 11.4641 7H19.6419C20.9332 7 21.7726 8.20695 21.7726 9.43043V14.5692C21.7726 14.9391 21.4727 15.239 21.1028 15.239C20.7329 15.239 20.433 14.9391 20.433 14.5692V9.43043C20.433 8.70191 19.9702 8.33961 19.6419 8.33961H11.4641Z" fill="black"/>
<path fill-rule="evenodd" clip-rule="evenodd" d="M13.8307 9.92371C13.8307 9.55379 14.1306 9.25391 14.5005 9.25391H16.6056C16.9755 9.25391 17.2754 9.55379 17.2754 9.92371C17.2754 10.2936 16.9755 10.5935 16.6056 10.5935H14.5005C14.1306 10.5935 13.8307 10.2936 13.8307 9.92371Z" fill="black"/>
</svg>
