<svg width="35" height="35" viewBox="0 0 35 35" fill="none" xmlns="http://www.w3.org/2000/svg">
<path d="M0 8.55556C0 3.83045 3.83045 0 8.55556 0H26.4444C31.1695 0 35 3.83045 35 8.55556V26.4444C35 31.1695 31.1695 35 26.4444 35H8.55556C3.83045 35 0 31.1695 0 26.4444V8.55556Z" fill="#F3F3F3" fill-opacity="0.5"/>
<path fill-rule="evenodd" clip-rule="evenodd" d="M14.6794 20.4918C14.6794 19.3821 15.5791 18.4824 16.6889 18.4824H24.1524C25.2621 18.4824 26.1618 19.3821 26.1618 20.4918V25.0848C26.1618 26.1945 25.2621 27.0942 24.1524 27.0942H16.6889C15.5791 27.0942 14.6794 26.1945 14.6794 25.0848V20.4918ZM16.6889 19.822C16.3189 19.822 16.0191 20.1219 16.0191 20.4918V25.0848C16.0191 25.4547 16.3189 25.7546 16.6889 25.7546H24.1524C24.5223 25.7546 24.8222 25.4547 24.8222 25.0848V20.4918C24.8222 20.1219 24.5223 19.822 24.1524 19.822H16.6889Z" fill="black" fill-opacity="0.5"/>
<path fill-rule="evenodd" clip-rule="evenodd" d="M15.3915 19.1276C15.6164 18.8338 16.0368 18.778 16.3305 19.0028L20.0159 21.8239C20.2563 22.0079 20.5903 22.0078 20.8305 21.8236L24.5104 19.0031C24.804 18.7781 25.2245 18.8336 25.4495 19.1272C25.6745 19.4208 25.6189 19.8413 25.3253 20.0663L21.6454 22.8868C20.9246 23.4393 19.9229 23.4396 19.2017 22.8876L15.5163 20.0666C15.2225 19.8417 15.1667 19.4213 15.3915 19.1276Z" fill="black" fill-opacity="0.5"/>
<path fill-rule="evenodd" clip-rule="evenodd" d="M10.6862 8.33961C10.3579 8.33961 9.89515 8.70192 9.89515 9.43043V25.9459C9.89515 26.6744 10.3579 27.0367 10.6862 27.0367H13.7752C14.1451 27.0367 14.445 27.3366 14.445 27.7065C14.445 28.0764 14.1451 28.3763 13.7752 28.3763H10.6862C9.39492 28.3763 8.55554 27.1694 8.55554 25.9459V9.43043C8.55554 8.20694 9.39492 7 10.6862 7H18.8641C20.1554 7 20.9948 8.20695 20.9948 9.43043V16.4298C20.9948 16.7997 20.6949 17.0996 20.325 17.0996C19.955 17.0996 19.6551 16.7997 19.6551 16.4298V9.43043C19.6551 8.70191 19.1924 8.33961 18.8641 8.33961H10.6862Z" fill="black" fill-opacity="0.5"/>
<path fill-rule="evenodd" clip-rule="evenodd" d="M13.0527 9.92371C13.0527 9.55379 13.3526 9.25391 13.7225 9.25391H15.8276C16.1976 9.25391 16.4974 9.55379 16.4974 9.92371C16.4974 10.2936 16.1976 10.5935 15.8276 10.5935H13.7225C13.3526 10.5935 13.0527 10.2936 13.0527 9.92371Z" fill="black" fill-opacity="0.5"/>
</svg>
