<svg width="20" height="19" viewBox="0 0 20 19" fill="none" xmlns="http://www.w3.org/2000/svg">
<path d="M7.58678 6.49983L5.58679 8.49983C5.54133 8.40892 5.45043 8.27256 5.40497 8.18165C3.99588 5.77256 3.22314 2.99983 3.22314 0.0452881H5.95042C5.95042 2.36347 6.54133 4.54529 7.58678 6.49983Z" fill="white"/>
<path d="M19.4956 16.2725V18.9998C16.0411 18.9998 12.7683 18.0907 9.99561 16.4543C9.67743 16.2725 9.35924 16.0907 9.04106 15.8634C6.85924 14.4543 5.04106 12.5907 3.63197 10.4543C3.4047 10.1361 3.22287 9.81794 3.04106 9.49976C1.40469 6.68158 0.495605 3.4543 0.495605 -0.000244141H3.22287C3.22287 2.9543 3.99561 5.72703 5.4047 8.13612C5.45015 8.27249 5.54106 8.36339 5.58651 8.4543C6.95015 10.6816 8.81378 12.5452 10.9956 13.8634C11.0865 13.9088 11.2229 13.9998 11.3138 14.0452C13.7683 15.4998 16.5411 16.2725 19.4956 16.2725Z" fill="white"/>
<path d="M19.4956 13.591V16.3182C16.541 16.3182 13.7683 15.5455 11.3592 14.1364C11.2228 14.091 11.1319 14 11.041 13.9546L13.041 11.9546C14.9501 12.9546 17.1774 13.591 19.4956 13.591Z" fill="white"/>
</svg>
