<svg width="35" height="35" viewBox="0 0 35 35" fill="none" xmlns="http://www.w3.org/2000/svg">
<path d="M0 8.55556C0 3.83045 3.83045 0 8.55556 0H26.4444C31.1695 0 35 3.83045 35 8.55556V26.4444C35 31.1695 31.1695 35 26.4444 35H8.55556C3.83045 35 0 31.1695 0 26.4444V8.55556Z" fill="#F3F3F3"/>
<path fill-rule="evenodd" clip-rule="evenodd" d="M21.9625 17.1554L21.9638 17.1563L21.9703 17.161C21.9764 17.1655 21.9859 17.1724 21.9985 17.1814C22.0238 17.1996 22.0614 17.2264 22.1091 17.2597C22.2048 17.3266 22.3399 17.4188 22.4963 17.5196C22.8198 17.7282 23.1944 17.9472 23.4923 18.0682C23.7935 18.1906 24.2545 18.3102 24.675 18.403C24.8782 18.4478 25.0599 18.4839 25.1907 18.5086C25.2559 18.521 25.3081 18.5305 25.3436 18.5368C25.3613 18.54 25.3747 18.5424 25.3836 18.5439L25.3932 18.5455L25.3952 18.5459C25.3953 18.5459 25.3955 18.5459 25.3955 18.5459C25.7787 18.611 26.0407 18.9331 25.9949 19.2829L25.4303 23.5974C25.4294 23.6042 25.4284 23.611 25.4273 23.6178C25.2621 24.6159 24.5543 25.339 24.1121 25.7764C23.3812 26.4992 22.5517 26.8663 22.1539 27.0424C22.1364 27.0501 22.1198 27.0575 22.104 27.0645C21.8922 27.1587 21.6676 27.1871 21.4839 27.1858C21.301 27.1846 21.0843 27.1534 20.8844 27.0645C20.8686 27.0575 20.852 27.0501 20.8345 27.0424C20.4367 26.8663 19.6072 26.4992 18.8763 25.7764C18.4341 25.339 17.7263 24.6159 17.5611 23.6178C17.56 23.611 17.559 23.6042 17.5581 23.5974L16.9935 19.2829C16.9481 18.9366 17.2045 18.6168 17.5829 18.5477C17.5829 18.5477 17.5828 18.5477 17.5829 18.5477L17.585 18.5473L17.5938 18.5457C17.6019 18.5442 17.6144 18.5418 17.6308 18.5387C17.6636 18.5324 17.7122 18.5229 17.773 18.5106C17.8949 18.4859 18.065 18.45 18.2567 18.4052C18.6515 18.313 19.0947 18.1931 19.4019 18.0682C19.7102 17.943 20.1146 17.7182 20.4646 17.5075C20.6345 17.4052 20.7827 17.3117 20.8883 17.2438C20.941 17.2099 20.9828 17.1826 21.0111 17.164C21.0252 17.1548 21.036 17.1476 21.043 17.143L21.0506 17.1379L21.0525 17.1367C21.3248 16.9542 21.6996 16.962 21.9625 17.1554ZM18.5441 19.7215L19.0294 23.429C19.1242 23.98 19.5268 24.4333 19.9713 24.8729C20.5042 25.3999 21.112 25.6728 21.4942 25.8426C21.8764 25.6728 22.4842 25.3999 23.0171 24.8729C23.4616 24.4333 23.8642 23.98 23.959 23.429L24.4431 19.7304C24.404 19.722 24.364 19.7134 24.3231 19.7043C23.8921 19.6092 23.3179 19.4662 22.884 19.2899C22.4469 19.1123 21.9745 18.8291 21.6348 18.6101C21.5794 18.5743 21.5265 18.5396 21.4766 18.5065C21.4172 18.5432 21.3537 18.5821 21.287 18.6222C20.9267 18.8391 20.4371 19.1165 20.0103 19.2899C19.5825 19.4638 19.0376 19.6064 18.628 19.7021C18.5996 19.7088 18.5716 19.7152 18.5441 19.7215Z" fill="black"/>
<path fill-rule="evenodd" clip-rule="evenodd" d="M11.4641 8.33961C11.1357 8.33961 10.673 8.70192 10.673 9.43043V25.9459C10.673 26.6744 11.1357 27.0367 11.4641 27.0367H16.6581C17.028 27.0367 17.3279 27.3366 17.3279 27.7065C17.3279 28.0764 17.028 28.3763 16.6581 28.3763H11.4641C10.1727 28.3763 9.33337 27.1694 9.33337 25.9459V9.43043C9.33337 8.20694 10.1727 7 11.4641 7H19.6419C20.9332 7 21.7726 8.20695 21.7726 9.43043V14.5692C21.7726 14.9391 21.4727 15.239 21.1028 15.239C20.7329 15.239 20.433 14.9391 20.433 14.5692V9.43043C20.433 8.70191 19.9702 8.33961 19.6419 8.33961H11.4641Z" fill="black"/>
<path fill-rule="evenodd" clip-rule="evenodd" d="M13.8307 9.92371C13.8307 9.55379 14.1306 9.25391 14.5005 9.25391H16.6056C16.9755 9.25391 17.2754 9.55379 17.2754 9.92371C17.2754 10.2936 16.9755 10.5935 16.6056 10.5935H14.5005C14.1306 10.5935 13.8307 10.2936 13.8307 9.92371Z" fill="black"/>
</svg>
