<svg width="17" height="20" viewBox="0 0 17 20" fill="none" xmlns="http://www.w3.org/2000/svg">
<path fill-rule="evenodd" clip-rule="evenodd" d="M9.04315 0.170049L9.047 0.172798L9.06171 0.183262C9.07505 0.192724 9.09534 0.207058 9.122 0.225733C9.17533 0.263095 9.25405 0.317755 9.35349 0.385455C9.55264 0.521041 9.8335 0.707967 10.1591 0.912506C10.8227 1.32941 11.6256 1.78973 12.2908 2.05311C12.9597 2.31799 13.9445 2.56441 14.8025 2.74893C15.2233 2.83943 15.5992 2.91206 15.8698 2.96201C16.0049 2.98696 16.1133 3.00618 16.1874 3.01907C16.2244 3.02552 16.2529 3.03038 16.2717 3.03357L16.2928 3.03711L16.2977 3.03793L16.2987 3.0381C16.7431 3.11159 17.0471 3.4756 16.994 3.87095L15.848 12.4041C15.847 12.4118 15.8458 12.4194 15.8445 12.4271C15.5412 14.2133 14.2365 15.5303 13.3369 16.3973C11.9375 17.7459 10.3478 19.432 9.54862 19.7769C9.51528 19.7913 9.48332 19.8051 9.4528 19.8183C9.13601 19.9556 8.78556 20.002 8.48392 19.9999C8.18323 19.9979 7.84477 19.9473 7.54719 19.8183C7.51668 19.8051 7.48472 19.7913 7.45138 19.7769C6.65222 19.432 5.06245 17.7459 3.66307 16.3973C2.76352 15.5303 1.45881 14.2133 1.15552 12.4271C1.15422 12.4194 1.15305 12.4118 1.15202 12.4041L0.00601297 3.87095C-0.046551 3.47956 0.250832 3.11816 0.689667 3.0401L0.695107 3.03913L0.714509 3.03561C0.731975 3.03243 0.75835 3.02759 0.792772 3.02117C0.861634 3.00832 0.962588 2.98914 1.08876 2.96423C1.34139 2.91436 1.6936 2.84183 2.09077 2.75142C2.89846 2.56755 3.84227 2.32076 4.51823 2.05311C5.19542 1.78497 6.05323 1.31806 6.76808 0.89874C7.11954 0.692575 7.42592 0.504184 7.64423 0.367451C7.75327 0.299159 7.84003 0.243946 7.89911 0.206078C7.92865 0.187149 7.95125 0.172569 7.96623 0.162872L7.9829 0.152061L7.98759 0.149006C8.30345 -0.0572513 8.73822 -0.0485812 9.04315 0.170049ZM1.8052 4.37269L2.85833 12.2142C3.08017 13.4947 4.03037 14.5064 4.93291 15.3762C6.10908 16.5097 7.45002 18.0896 8.22973 18.4267C8.25607 18.4381 8.28177 18.4492 8.3068 18.4601C8.3068 18.4601 8.32622 18.4675 8.363 18.4742C8.40064 18.4811 8.44683 18.4857 8.49697 18.486C8.60868 18.4868 8.67796 18.4667 8.6932 18.4601C8.71823 18.4492 8.74393 18.4381 8.77027 18.4267C9.54998 18.0896 10.8909 16.5097 12.0671 15.3762C12.9696 14.5064 13.9198 13.4947 14.1417 12.2142L15.1935 4.38262C14.9604 4.33757 14.688 4.28278 14.3944 4.21963C13.5243 4.03252 12.4081 3.75963 11.5853 3.43381C10.7586 3.10648 9.84248 2.57353 9.16006 2.14484C8.90043 1.98173 8.66788 1.82941 8.4783 1.7025C8.26951 1.83175 8.01034 1.98933 7.72177 2.1586C6.99506 2.58488 6.03837 3.11125 5.22375 3.43381C4.4079 3.75685 3.34621 4.02938 2.52135 4.21715C2.25915 4.27684 2.01585 4.32907 1.8052 4.37269Z" fill="#34CA6B"/>
</svg>
