<svg width="70" height="10" viewBox="0 0 70 10" fill="none" xmlns="http://www.w3.org/2000/svg">
<path d="M8.77533 1.91113C9.00703 2.2104 9.2001 2.53864 9.36422 2.88618L4.90404 6.17815L3.03125 5.00037V3.5909L4.8945 4.75903L8.77533 1.91113Z" fill="white"/>
<path d="M1.12951 4.90284C1.12951 4.83526 1.12951 4.77734 1.13917 4.70976L0.00965585 4.65186C0.00965585 4.72909 0 4.81597 0 4.89319C0 6.24475 0.550274 7.47072 1.43843 8.35901L2.2397 7.55773C1.55426 6.88195 1.12949 5.94552 1.12949 4.9029L1.12951 4.90284Z" fill="white"/>
<path d="M4.8944 1.1383C4.96197 1.1383 5.0199 1.1383 5.08748 1.14795L5.14541 0.0184432C5.06818 0.0184432 4.98129 0.00878906 4.90405 0.00878906C3.55251 0.00878906 2.32652 0.559063 1.43823 1.44722L2.2395 2.24849C2.91528 1.56305 3.86136 1.13828 4.89433 1.13828L4.8944 1.1383Z" fill="white"/>
<path d="M4.89456 8.66904C4.82699 8.66904 4.76906 8.66904 4.70148 8.65939L4.64355 9.7889C4.72079 9.7889 4.80767 9.79855 4.88491 9.79855C6.23645 9.79855 7.46244 9.24828 8.35073 8.36012L7.54946 7.55884C6.87368 8.25393 5.93725 8.66904 4.89463 8.66904H4.89456Z" fill="white"/>
<path d="M7.01844 1.79564L7.97418 1.09089C7.1343 0.415132 6.06274 0 4.89453 0V1.12951C5.68614 1.13917 6.41985 1.38052 7.01846 1.79564H7.01844Z" fill="white"/>
<path d="M9.7987 4.90267C9.7987 4.60341 9.76974 4.31378 9.72147 4.02417L8.66919 4.80615V4.90268C8.66919 6.01289 8.1865 7.0072 7.42383 7.6927L8.1865 8.53261C9.17119 7.64445 9.7987 6.34125 9.7987 4.90265L9.7987 4.90267Z" fill="white"/>
<path d="M4.89455 8.66895C3.78435 8.66895 2.79003 8.18625 2.10453 7.42358L1.26465 8.18625C2.16246 9.1806 3.45601 9.79846 4.89461 9.79846L4.89455 8.66895Z" fill="white"/>
<path d="M2.37487 2.11358L1.61221 1.27368C0.617854 2.17149 0 3.46504 0 4.90347H1.12951C1.12951 3.80292 1.61221 2.79895 2.37487 2.11345V2.11358Z" fill="white"/>
<path d="M30.6784 2.84313L32.139 1.76978H27.248V8.22096H32.139V7.14761H28.6423V5.49885H31.63V4.41443H28.6423V2.84313H30.6784Z" fill="white"/>
<path d="M23.3197 7.14761H21.8591V5.355H23.3197C24.205 5.355 24.6255 5.65377 24.6255 6.2513C24.6144 6.85991 24.1718 7.14761 23.3197 7.14761ZM23.5521 4.28164H21.8591V2.84313H24.5701L26.0308 1.76978H20.4648V8.23203H23.3751C25.0017 8.23203 25.9533 7.49064 25.9533 6.20704C25.9423 4.95664 25.0902 4.28164 23.5521 4.28164Z" fill="white"/>
<path d="M36.0673 5.3218H34.828V2.84313H36.0673C36.9637 2.84313 37.4505 3.28575 37.4505 4.08247C37.4505 4.87918 36.9637 5.3218 36.0673 5.3218ZM36.1005 1.76978H33.4448V8.23203H34.8391V6.39516H36.1116C37.8046 6.39516 38.8669 5.50992 38.8669 4.08247C38.8669 2.65502 37.8046 1.76978 36.1005 1.76978Z" fill="white"/>
<path d="M18.0637 6.82645C17.6985 7.02563 17.278 7.13628 16.8575 7.13628C15.596 7.13628 14.6887 6.23998 14.6887 5.00064C14.6887 3.7613 15.596 2.865 16.8575 2.865C17.3112 2.85393 17.7538 2.99778 18.13 3.26335L19.137 2.52197L19.0706 2.45557C18.4841 1.93549 17.7096 1.66992 16.8133 1.66992C15.8506 1.66992 14.9653 2.00189 14.3346 2.58836C13.7038 3.19696 13.3387 4.06007 13.3608 4.94531C13.3497 5.84162 13.7038 6.71579 14.3346 7.34653C14.9985 7.96619 15.8948 8.32029 16.8022 8.29816C17.8091 8.29816 18.6833 7.94406 19.2809 7.31333L18.3846 6.6494L18.0637 6.82645Z" fill="white"/>
<path d="M43.1824 7.15851V5.3659H44.6431C45.5283 5.3659 45.9488 5.66467 45.9488 6.2622C45.9488 6.85974 45.5172 7.15851 44.6431 7.15851H43.1824ZM43.1824 4.29255V2.85403H46.834V1.78068H41.7771V8.24293H44.6984C46.325 8.24293 47.2767 7.50154 47.2767 6.21794C47.2767 4.97861 46.4246 4.30361 44.8865 4.30361H43.1824V4.29255ZM64.572 5.62041H65.4351L67.5708 8.2208H69.3745L66.5196 4.87902L69.0204 1.75854H67.4159L65.3356 4.52492H64.561V1.75854H63.1778V8.2208H64.572V5.62041ZM50.1979 5.85278L51.2824 3.26345L52.3004 5.85278H50.1979ZM53.2631 8.23186H54.7348L52.0016 1.78068H50.5852L47.7967 8.23186H49.2021L49.7664 6.9372H52.7319L53.2631 8.23186ZM55.6643 1.78068V8.24293H57.0586V5.59827H60.0352V8.24293H61.4294V1.78068H60.0352V4.4364H57.0586V1.78068H55.6643Z" fill="white"/>
</svg>
