<svg width="33" height="33" viewBox="0 0 33 33" fill="none" xmlns="http://www.w3.org/2000/svg">
<rect x="0.450195" y="0.136108" width="32.2975" height="32.2975" rx="5" fill="#00E7FF" fill-opacity="0.14"/>
<path d="M16.5761 6.81689C12.8614 6.81689 9.82617 9.85211 9.82617 13.5668V24.3939C9.82617 25.1188 10.4151 25.753 11.1852 25.753H22.0123C22.7371 25.753 23.3714 25.1641 23.3714 24.3939V13.5668C23.3261 9.85211 20.3361 6.81689 16.5761 6.81689ZM17.2556 21.5399V23.0802C17.2556 23.4426 16.9385 23.7597 16.5761 23.7597C16.2137 23.7597 15.8966 23.4426 15.8966 23.0802V21.5399C15.4889 21.3134 15.2171 20.8604 15.2171 20.3621C15.2171 19.6373 15.806 19.003 16.5761 19.003C17.3009 19.003 17.9352 19.592 17.9352 20.3621C17.9352 20.8604 17.6634 21.2681 17.2556 21.5399ZM12.499 16.2849V13.5668C12.499 11.3471 14.311 9.4897 16.5761 9.4897C18.7959 9.4897 20.6533 11.3018 20.6533 13.5668V16.2849H12.499Z" fill="#00E7FF"/>
</svg>
