<svg width="81" height="81" viewBox="0 0 81 81" fill="none" xmlns="http://www.w3.org/2000/svg">
<path d="M40.9551 80.0899C63.0713 80.0899 81 62.1612 81 40.0449C81 17.9287 63.0713 0 40.9551 0C18.8389 0 0.910156 17.9287 0.910156 40.0449C0.910156 62.1612 18.8389 80.0899 40.9551 80.0899Z" fill="#F5F5F5"/>
<path d="M1.30936 33.2294L73.3071 1.11309C74.9917 0.344059 76.8227 1.88213 76.3833 3.67654L61.5882 62.9288C61.2586 64.2837 59.7571 65.0162 58.4754 64.3936L1.27274 37.2577C-0.448467 36.452 -0.411844 33.9985 1.30936 33.2294Z" fill="#FEFEFE"/>
<path d="M40.6307 46.3361C37.8153 49.9612 39.0378 55.2509 43.1867 57.2114L45.3353 58.2472L10.9214 41.9342C16.6262 44.6345 23.3311 43.8207 28.258 39.8997L73.1553 3.72254C73.4887 3.46361 73.8962 3.87051 73.6369 4.20343L40.6307 46.3361Z" fill="#F5F5F5"/>
<path d="M1.07969 64.4826L13.9319 54.9683C14.8554 54.3045 14.74 52.94 13.7395 52.4237L11.4692 51.2068C10.5457 50.7274 9.3913 50.9855 8.8141 51.7968L0.156175 63.6345C-0.344061 64.1876 0.464013 64.9252 1.07969 64.4826Z" fill="#01A2FA"/>
<path d="M8.36057 78.1343L21.2128 68.6199C22.1363 67.9561 22.0209 66.5917 21.0204 66.0754L18.7501 64.8584C17.8266 64.379 16.6722 64.6372 16.095 65.4485L7.43706 77.2861C6.93682 77.8393 7.7449 78.5768 8.36057 78.1343Z" fill="#01A2FA"/>
<path d="M31.9392 74.5029L44.0042 65.6228C44.8712 65.0033 44.7628 63.7298 43.8236 63.2479L41.6924 62.1121C40.8254 61.6646 39.7417 61.9055 39.1999 62.6628L31.0723 73.7113C30.6388 74.2275 31.3974 74.9159 31.9392 74.5029Z" fill="#01A2FA"/>
</svg>
