<svg width="13" height="15" viewBox="0 0 13 15" fill="none" xmlns="http://www.w3.org/2000/svg">
<path fill-rule="evenodd" clip-rule="evenodd" d="M10.7374 1.009C10.0637 0.806722 9.35361 1.18886 9.15133 1.86253C8.94905 2.5362 9.33119 3.2463 10.0049 3.44858C10.6785 3.65086 11.3886 3.26872 11.5909 2.59505C11.7932 1.92139 11.4111 1.21128 10.7374 1.009ZM8.28006 1.60091C8.62682 0.446055 9.84414 -0.209038 10.999 0.137727C12.1539 0.484493 12.809 1.70181 12.4622 2.85667C12.1154 4.01153 10.8981 4.66662 9.74325 4.31986C9.27532 4.17935 8.88944 3.89593 8.61901 3.53165L4.04124 6.27831C4.1505 6.45515 4.23614 6.6507 4.29271 6.86181C4.44645 7.4356 4.35671 8.01727 4.08681 8.49711L8.66164 11.242C8.94462 10.8651 9.35116 10.5767 9.84168 10.4453C11.0064 10.1332 12.2036 10.8244 12.5157 11.9891C12.8277 13.1538 12.1365 14.351 10.9718 14.663C9.80713 14.9751 8.60995 14.2839 8.29786 13.1192C8.20282 12.7645 8.20083 12.4068 8.27691 12.0721L3.47295 9.18968C3.26115 9.34464 3.01763 9.46376 2.74891 9.53577C1.58421 9.84785 0.38702 9.15667 0.0749353 7.99196C-0.237148 6.82725 0.454048 5.63006 1.61876 5.31798C2.2483 5.14929 2.88732 5.27373 3.39093 5.60761L8.23866 2.69898C8.16071 2.34698 8.16901 1.97074 8.28006 1.60091ZM1.85421 6.19669C1.17479 6.37873 0.771593 7.0771 0.953641 7.75651C1.13569 8.43592 1.83404 8.83911 2.51346 8.65706C3.19287 8.47501 3.59605 7.77668 3.414 7.09726C3.23195 6.41783 2.53361 6.01464 1.85421 6.19669ZM9.17657 12.8838C8.99452 12.2044 9.39772 11.506 10.0771 11.324C10.7565 11.1419 11.4549 11.5451 11.637 12.2245C11.819 12.9039 11.4158 13.6023 10.7364 13.7843C10.057 13.9664 9.35861 13.5632 9.17657 12.8838Z" fill="#787878"/>
</svg>
