<svg width="41" height="41" viewBox="0 0 41 41" fill="none" xmlns="http://www.w3.org/2000/svg">
<circle cx="20.8301" cy="20.9568" r="19.5" fill="white" stroke="#CBCBCB"/>
<path d="M7.79687 16.312C9.03734 16.312 11.6423 16.312 12.5107 16.312C12.6967 16.312 12.8828 16.435 12.9448 16.558C13.9992 18.895 15.3638 20.9859 16.9143 22.8924C17.0384 23.1384 17.4105 23.0769 17.4726 22.8309C17.9687 21.6624 18.8991 18.7105 17.1004 16.6195C16.9143 16.435 16.9764 16.1275 17.2245 16.066C19.0232 15.328 20.7598 15.2051 22.4965 16.0045C22.8686 16.189 23.1167 16.4965 23.1167 16.927L23.4889 22.9539C23.4889 23.1998 23.737 23.4458 23.985 23.3843C25.9698 22.9539 27.0862 20.0634 28.2647 16.9885C28.3887 16.6195 28.7609 16.3735 29.195 16.3735H33.5367C33.9088 16.3735 34.1569 16.681 34.0949 17.05C33.6607 19.2025 31.4899 22.0314 30.3115 23.3843C29.9393 23.8763 29.9393 24.5528 30.3115 24.9833L34.219 29.5957C34.4671 29.9032 34.281 30.4567 33.8468 30.4567H28.9469C28.5128 30.4567 28.1406 30.2722 27.8925 29.9647L24.4812 27.1357C24.2952 26.9513 23.985 26.8898 23.799 27.0743C23.3648 27.5662 23.4268 28.2427 23.1787 29.6572C23.1167 30.0877 22.6826 30.4567 22.2484 30.4567H18.8991C18.4029 30.4567 17.9687 30.3337 17.5346 30.1492C15.5498 29.1652 10.3398 25.9058 7.3627 16.927C7.23865 16.6195 7.48675 16.312 7.79687 16.312Z" fill="#01A2FA"/>
</svg>
