<svg width="36" height="35" viewBox="0 0 36 35" fill="none" xmlns="http://www.w3.org/2000/svg">
<path d="M0.367284 17.5C0.367285 15.2019 0.819933 12.9263 1.69939 10.8031C2.57884 8.67991 3.86788 6.75073 5.4929 5.12571C7.11792 3.50069 9.0471 2.21165 11.1703 1.3322C13.2935 0.452742 15.5691 9.36366e-05 17.8672 9.38375e-05C20.1654 9.40384e-05 22.441 0.452742 24.5642 1.3322C26.6874 2.21165 28.6166 3.50069 30.2416 5.12571C31.8666 6.75073 33.1556 8.67991 34.0351 10.8031C34.9145 12.9263 35.3672 15.2019 35.3672 17.5L17.8672 17.5L0.367284 17.5Z" fill="#FEDD33"/>
<path d="M35.3671 17.5C35.3671 19.7981 34.9144 22.0737 34.035 24.1969C33.1555 26.3201 31.8665 28.2493 30.2415 29.8743C28.6165 31.4993 26.6873 32.7883 24.5641 33.6678C22.4409 34.5473 20.1653 34.9999 17.8671 34.9999V17.5H35.3671Z" fill="black"/>
<path d="M17.8672 34.9999C15.5691 34.9999 13.2935 34.5473 11.1703 33.6678C9.0471 32.7883 7.11792 31.4993 5.4929 29.8743C3.86788 28.2493 2.57884 26.3201 1.69939 24.1969C0.81993 22.0737 0.367282 19.7981 0.367282 17.5L17.8672 17.5L17.8672 34.9999Z" fill="#F2F1ED"/>
</svg>
